<svg width="261" height="183" viewBox="0 0 261 183" fill="none" xmlns="http://www.w3.org/2000/svg">
<path d="M24.1737 136.72V137.904H20.9898V148H19.5338V137.904H16.3498V136.72H24.1737ZM30.7551 139.104C31.5978 139.104 32.3498 139.285 33.0111 139.648C33.6831 140.011 34.2058 140.533 34.5791 141.216C34.9631 141.899 35.1551 142.699 35.1551 143.616C35.1551 144.533 34.9631 145.333 34.5791 146.016C34.2058 146.688 33.6831 147.205 33.0111 147.568C32.3498 147.931 31.5978 148.112 30.7551 148.112C29.9125 148.112 29.1551 147.931 28.4831 147.568C27.8218 147.205 27.2991 146.688 26.9151 146.016C26.5311 145.333 26.3391 144.533 26.3391 143.616C26.3391 142.699 26.5311 141.899 26.9151 141.216C27.2991 140.533 27.8218 140.011 28.4831 139.648C29.1551 139.285 29.9125 139.104 30.7551 139.104ZM30.7551 140.384C30.2325 140.384 29.7471 140.501 29.2991 140.736C28.8618 140.971 28.5045 141.333 28.2271 141.824C27.9605 142.304 27.8271 142.901 27.8271 143.616C27.8271 144.32 27.9605 144.917 28.2271 145.408C28.5045 145.888 28.8618 146.245 29.2991 146.48C29.7471 146.715 30.2325 146.832 30.7551 146.832C31.2778 146.832 31.7578 146.715 32.1951 146.48C32.6431 146.245 33.0005 145.888 33.2671 145.408C33.5445 144.917 33.6831 144.32 33.6831 143.616C33.6831 142.901 33.5445 142.304 33.2671 141.824C33.0005 141.333 32.6431 140.971 32.1951 140.736C31.7578 140.501 31.2778 140.384 30.7551 140.384ZM39.6584 140.992C39.9464 140.384 40.3677 139.915 40.9224 139.584C41.477 139.243 42.1384 139.072 42.9064 139.072V140.656H42.4584C41.637 140.656 40.965 140.869 40.4424 141.296C39.9197 141.712 39.6584 142.405 39.6584 143.376V148H38.2024V139.216H39.6584V140.992ZM49.189 139.136C49.9997 139.136 50.6877 139.333 51.253 139.728C51.829 140.112 52.245 140.635 52.501 141.296V139.216H53.957V152.16H52.501V145.856C52.2343 146.549 51.813 147.099 51.237 147.504C50.6717 147.909 49.989 148.112 49.189 148.112C48.4103 148.112 47.7063 147.931 47.077 147.568C46.4477 147.195 45.9517 146.672 45.589 146C45.237 145.317 45.061 144.528 45.061 143.632C45.061 142.736 45.237 141.952 45.589 141.28C45.9517 140.597 46.4477 140.069 47.077 139.696C47.7063 139.323 48.4103 139.136 49.189 139.136ZM49.509 140.4C48.6343 140.4 47.9197 140.688 47.365 141.264C46.821 141.829 46.549 142.619 46.549 143.632C46.549 144.645 46.821 145.435 47.365 146C47.909 146.555 48.6237 146.832 49.509 146.832C50.0637 146.832 50.565 146.704 51.013 146.448C51.4717 146.181 51.8343 145.808 52.101 145.328C52.3677 144.837 52.501 144.267 52.501 143.616C52.501 142.965 52.3677 142.4 52.101 141.92C51.8343 141.429 51.4717 141.056 51.013 140.8C50.565 140.533 50.0637 140.4 49.509 140.4ZM65.2322 139.216V148H63.7762V145.936C63.5522 146.651 63.1522 147.2 62.5762 147.584C62.0109 147.957 61.3496 148.144 60.5922 148.144C59.5789 148.144 58.7576 147.819 58.1282 147.168C57.4989 146.507 57.1842 145.563 57.1842 144.336V139.216H58.6402V144.192C58.6402 145.067 58.8642 145.744 59.3122 146.224C59.7602 146.693 60.3682 146.928 61.1362 146.928C61.9362 146.928 62.5762 146.672 63.0562 146.16C63.5362 145.637 63.7762 144.88 63.7762 143.888V139.216H65.2322ZM76.7949 143.12C76.7949 143.429 76.7735 143.696 76.7309 143.92H69.7069C69.7389 144.923 70.0215 145.675 70.5549 146.176C71.0989 146.677 71.7602 146.928 72.5389 146.928C73.2429 146.928 73.8295 146.752 74.2989 146.4C74.7789 146.037 75.0722 145.557 75.1789 144.96H76.7309C76.6242 145.568 76.3842 146.112 76.0109 146.592C75.6482 147.072 75.1735 147.445 74.5869 147.712C74.0002 147.979 73.3389 148.112 72.6029 148.112C71.7602 148.112 71.0135 147.931 70.3629 147.568C69.7122 147.205 69.2002 146.688 68.8269 146.016C68.4642 145.333 68.2829 144.533 68.2829 143.616C68.2829 142.699 68.4642 141.899 68.8269 141.216C69.2002 140.533 69.7122 140.011 70.3629 139.648C71.0135 139.285 71.7602 139.104 72.6029 139.104C73.4562 139.104 74.1975 139.285 74.8269 139.648C75.4669 140.011 75.9522 140.496 76.2829 141.104C76.6242 141.712 76.7949 142.384 76.7949 143.12ZM75.3229 143.216C75.3549 142.565 75.2482 142.021 75.0029 141.584C74.7575 141.147 74.4215 140.821 73.9949 140.608C73.5682 140.395 73.1042 140.288 72.6029 140.288C71.8029 140.288 71.1309 140.539 70.5869 141.04C70.0429 141.531 69.7495 142.256 69.7069 143.216H75.3229ZM90.6493 139.072C91.6733 139.072 92.4946 139.403 93.1133 140.064C93.7426 140.715 94.0573 141.659 94.0573 142.896V148H92.6013V143.024C92.6013 142.16 92.3879 141.499 91.9613 141.04C91.5453 140.581 90.9693 140.352 90.2333 140.352C89.4653 140.352 88.8466 140.608 88.3773 141.12C87.9186 141.621 87.6893 142.363 87.6893 143.344V148H86.2333V143.024C86.2333 142.16 86.0199 141.499 85.5933 141.04C85.1666 140.581 84.5906 140.352 83.8653 140.352C83.0866 140.352 82.4626 140.608 81.9933 141.12C81.5346 141.621 81.3053 142.363 81.3053 143.344V148H79.8493V139.216H81.3053V141.216C81.5186 140.523 81.8973 139.995 82.4413 139.632C82.9959 139.259 83.6306 139.072 84.3453 139.072C85.0919 139.072 85.7373 139.264 86.2813 139.648C86.8359 140.021 87.2306 140.576 87.4653 141.312C87.7106 140.597 88.1213 140.048 88.6973 139.664C89.2733 139.269 89.9239 139.072 90.6493 139.072ZM106.171 139.104C107.024 139.104 107.744 139.317 108.331 139.744C108.928 140.171 109.344 140.741 109.579 141.456V136.16H111.035V148H109.579V145.76C109.344 146.475 108.928 147.045 108.331 147.472C107.744 147.899 107.024 148.112 106.171 148.112C105.392 148.112 104.699 147.931 104.091 147.568C103.483 147.205 103.003 146.688 102.651 146.016C102.31 145.333 102.139 144.533 102.139 143.616C102.139 142.699 102.31 141.899 102.651 141.216C103.003 140.533 103.483 140.011 104.091 139.648C104.699 139.285 105.392 139.104 106.171 139.104ZM106.587 140.4C105.691 140.4 104.971 140.688 104.427 141.264C103.894 141.829 103.627 142.613 103.627 143.616C103.627 144.619 103.894 145.408 104.427 145.984C104.971 146.549 105.691 146.832 106.587 146.832C107.163 146.832 107.675 146.699 108.123 146.432C108.582 146.165 108.939 145.792 109.195 145.312C109.451 144.821 109.579 144.256 109.579 143.616C109.579 142.976 109.451 142.411 109.195 141.92C108.939 141.429 108.582 141.056 108.123 140.8C107.675 140.533 107.163 140.4 106.587 140.4ZM122.582 143.12C122.582 143.429 122.561 143.696 122.518 143.92H115.494C115.526 144.923 115.809 145.675 116.342 146.176C116.886 146.677 117.548 146.928 118.326 146.928C119.03 146.928 119.617 146.752 120.086 146.4C120.566 146.037 120.86 145.557 120.966 144.96H122.518C122.412 145.568 122.172 146.112 121.798 146.592C121.436 147.072 120.961 147.445 120.374 147.712C119.788 147.979 119.126 148.112 118.39 148.112C117.548 148.112 116.801 147.931 116.15 147.568C115.5 147.205 114.988 146.688 114.614 146.016C114.252 145.333 114.07 144.533 114.07 143.616C114.07 142.699 114.252 141.899 114.614 141.216C114.988 140.533 115.5 140.011 116.15 139.648C116.801 139.285 117.548 139.104 118.39 139.104C119.244 139.104 119.985 139.285 120.614 139.648C121.254 140.011 121.74 140.496 122.07 141.104C122.412 141.712 122.582 142.384 122.582 143.12ZM121.11 143.216C121.142 142.565 121.036 142.021 120.79 141.584C120.545 141.147 120.209 140.821 119.782 140.608C119.356 140.395 118.892 140.288 118.39 140.288C117.59 140.288 116.918 140.539 116.374 141.04C115.83 141.531 115.537 142.256 115.494 143.216H121.11ZM129.829 146.72V148H128.741C127.845 148 127.173 147.787 126.725 147.36C126.287 146.933 126.069 146.219 126.069 145.216V140.48H124.757V139.216H126.069V137.024H127.541V139.216H129.813V140.48H127.541V145.248C127.541 145.813 127.642 146.203 127.845 146.416C128.058 146.619 128.421 146.72 128.933 146.72H129.829ZM134.212 140.992C134.5 140.384 134.921 139.915 135.476 139.584C136.03 139.243 136.692 139.072 137.46 139.072V140.656H137.012C136.19 140.656 135.518 140.869 134.996 141.296C134.473 141.712 134.212 142.405 134.212 143.376V148H132.756V139.216H134.212V140.992ZM143.646 139.104C144.499 139.104 145.219 139.317 145.806 139.744C146.403 140.171 146.819 140.741 147.054 141.456V139.216H148.51V148H147.054V145.76C146.819 146.475 146.403 147.045 145.806 147.472C145.219 147.899 144.499 148.112 143.646 148.112C142.867 148.112 142.174 147.931 141.566 147.568C140.958 147.205 140.478 146.688 140.126 146.016C139.785 145.333 139.614 144.533 139.614 143.616C139.614 142.699 139.785 141.899 140.126 141.216C140.478 140.533 140.958 140.011 141.566 139.648C142.174 139.285 142.867 139.104 143.646 139.104ZM144.062 140.4C143.166 140.4 142.446 140.688 141.902 141.264C141.369 141.829 141.102 142.613 141.102 143.616C141.102 144.619 141.369 145.408 141.902 145.984C142.446 146.549 143.166 146.832 144.062 146.832C144.638 146.832 145.15 146.699 145.598 146.432C146.057 146.165 146.414 145.792 146.67 145.312C146.926 144.821 147.054 144.256 147.054 143.616C147.054 142.976 146.926 142.411 146.67 141.92C146.414 141.429 146.057 141.056 145.598 140.8C145.15 140.533 144.638 140.4 144.062 140.4ZM157.033 148L154.745 144.64L152.681 148H151.065L153.945 143.472L151.049 139.216H152.713L154.937 142.48L156.969 139.216H158.585L155.721 143.632L158.697 148H157.033ZM160.95 136.64C160.95 136.373 161.04 136.16 161.222 136C161.403 135.829 161.643 135.744 161.942 135.744C162.24 135.744 162.48 135.829 162.662 136C162.843 136.16 162.934 136.373 162.934 136.64C162.934 136.907 162.843 137.125 162.662 137.296C162.48 137.456 162.24 137.536 161.942 137.536C161.643 137.536 161.403 137.456 161.222 137.296C161.04 137.125 160.95 136.907 160.95 136.64ZM162.662 139.216V148H161.206V139.216H162.662ZM170.344 146.72V148H169.256C168.36 148 167.688 147.787 167.24 147.36C166.803 146.933 166.584 146.219 166.584 145.216V140.48H165.272V139.216H166.584V137.024H168.056V139.216H170.328V140.48H168.056V145.248C168.056 145.813 168.158 146.203 168.36 146.416C168.574 146.619 168.936 146.72 169.448 146.72H170.344ZM182.998 139.072C184.022 139.072 184.849 139.403 185.478 140.064C186.108 140.715 186.422 141.659 186.422 142.896V148H184.966V143.024C184.966 142.149 184.742 141.477 184.294 141.008C183.846 140.539 183.238 140.304 182.47 140.304C181.67 140.304 181.03 140.565 180.55 141.088C180.07 141.6 179.83 142.352 179.83 143.344V148H178.374V136.16H179.83V141.296C180.054 140.581 180.449 140.032 181.014 139.648C181.59 139.264 182.252 139.072 182.998 139.072ZM193.789 139.104C194.632 139.104 195.384 139.285 196.045 139.648C196.717 140.011 197.24 140.533 197.613 141.216C197.997 141.899 198.189 142.699 198.189 143.616C198.189 144.533 197.997 145.333 197.613 146.016C197.24 146.688 196.717 147.205 196.045 147.568C195.384 147.931 194.632 148.112 193.789 148.112C192.947 148.112 192.189 147.931 191.517 147.568C190.856 147.205 190.333 146.688 189.949 146.016C189.565 145.333 189.373 144.533 189.373 143.616C189.373 142.699 189.565 141.899 189.949 141.216C190.333 140.533 190.856 140.011 191.517 139.648C192.189 139.285 192.947 139.104 193.789 139.104ZM193.789 140.384C193.267 140.384 192.781 140.501 192.333 140.736C191.896 140.971 191.539 141.333 191.261 141.824C190.995 142.304 190.861 142.901 190.861 143.616C190.861 144.32 190.995 144.917 191.261 145.408C191.539 145.888 191.896 146.245 192.333 146.48C192.781 146.715 193.267 146.832 193.789 146.832C194.312 146.832 194.792 146.715 195.229 146.48C195.677 146.245 196.035 145.888 196.301 145.408C196.579 144.917 196.717 144.32 196.717 143.616C196.717 142.901 196.579 142.304 196.301 141.824C196.035 141.333 195.677 140.971 195.229 140.736C194.792 140.501 194.312 140.384 193.789 140.384ZM203.989 139.104C204.981 139.104 205.775 139.365 206.373 139.888C206.981 140.4 207.349 141.093 207.477 141.968H206.085C206.021 141.445 205.802 141.019 205.429 140.688C205.066 140.347 204.575 140.176 203.957 140.176C203.434 140.176 203.023 140.304 202.725 140.56C202.437 140.805 202.293 141.141 202.293 141.568C202.293 141.888 202.389 142.149 202.581 142.352C202.783 142.544 203.029 142.693 203.317 142.8C203.615 142.896 204.021 143.003 204.533 143.12C205.183 143.269 205.706 143.424 206.101 143.584C206.506 143.733 206.847 143.979 207.125 144.32C207.413 144.661 207.557 145.12 207.557 145.696C207.557 146.411 207.285 146.992 206.741 147.44C206.207 147.888 205.493 148.112 204.597 148.112C203.551 148.112 202.698 147.861 202.037 147.36C201.375 146.859 200.986 146.16 200.869 145.264H202.277C202.33 145.797 202.559 146.229 202.965 146.56C203.381 146.891 203.925 147.056 204.597 147.056C205.098 147.056 205.487 146.928 205.765 146.672C206.053 146.416 206.197 146.08 206.197 145.664C206.197 145.323 206.095 145.051 205.893 144.848C205.69 144.645 205.439 144.491 205.141 144.384C204.842 144.277 204.431 144.165 203.909 144.048C203.258 143.899 202.735 143.749 202.341 143.6C201.957 143.451 201.626 143.216 201.349 142.896C201.082 142.565 200.949 142.123 200.949 141.568C200.949 140.832 201.221 140.24 201.765 139.792C202.309 139.333 203.05 139.104 203.989 139.104ZM214.844 146.72V148H213.756C212.86 148 212.188 147.787 211.74 147.36C211.303 146.933 211.084 146.219 211.084 145.216V140.48H209.772V139.216H211.084V137.024H212.556V139.216H214.828V140.48H212.556V145.248C212.556 145.813 212.658 146.203 212.86 146.416C213.074 146.619 213.436 146.72 213.948 146.72H214.844ZM217.515 136.64C217.515 136.373 217.606 136.16 217.787 136C217.968 135.829 218.208 135.744 218.507 135.744C218.806 135.744 219.046 135.829 219.227 136C219.408 136.16 219.499 136.373 219.499 136.64C219.499 136.907 219.408 137.125 219.227 137.296C219.046 137.456 218.806 137.536 218.507 137.536C218.208 137.536 217.968 137.456 217.787 137.296C217.606 137.125 217.515 136.907 217.515 136.64ZM219.227 139.216V148H217.771V139.216H219.227ZM235.901 143.12C235.901 143.429 235.88 143.696 235.837 143.92H228.813C228.845 144.923 229.128 145.675 229.661 146.176C230.205 146.677 230.866 146.928 231.645 146.928C232.349 146.928 232.936 146.752 233.405 146.4C233.885 146.037 234.178 145.557 234.285 144.96H235.837C235.73 145.568 235.49 146.112 235.117 146.592C234.754 147.072 234.28 147.445 233.693 147.712C233.106 147.979 232.445 148.112 231.709 148.112C230.866 148.112 230.12 147.931 229.469 147.568C228.818 147.205 228.306 146.688 227.933 146.016C227.57 145.333 227.389 144.533 227.389 143.616C227.389 142.699 227.57 141.899 227.933 141.216C228.306 140.533 228.818 140.011 229.469 139.648C230.12 139.285 230.866 139.104 231.709 139.104C232.562 139.104 233.304 139.285 233.933 139.648C234.573 140.011 235.058 140.496 235.389 141.104C235.73 141.712 235.901 142.384 235.901 143.12ZM234.429 143.216C234.461 142.565 234.354 142.021 234.109 141.584C233.864 141.147 233.528 140.821 233.101 140.608C232.674 140.395 232.21 140.288 231.709 140.288C230.909 140.288 230.237 140.539 229.693 141.04C229.149 141.531 228.856 142.256 228.813 143.216H234.429ZM243.148 146.72V148H242.06C241.164 148 240.492 147.787 240.044 147.36C239.606 146.933 239.388 146.219 239.388 145.216V140.48H238.076V139.216H239.388V137.024H240.86V139.216H243.132V140.48H240.86V145.248C240.86 145.813 240.961 146.203 241.164 146.416C241.377 146.619 241.74 146.72 242.252 146.72H243.148ZM34.1281 166.136C34.9387 166.136 35.6267 166.333 36.1921 166.728C36.7681 167.112 37.1841 167.635 37.4401 168.296V166.216H38.8961V179.16H37.4401V172.856C37.1734 173.549 36.7521 174.099 36.1761 174.504C35.6107 174.909 34.9281 175.112 34.1281 175.112C33.3494 175.112 32.6454 174.931 32.0161 174.568C31.3867 174.195 30.8907 173.672 30.5281 173C30.1761 172.317 30.0001 171.528 30.0001 170.632C30.0001 169.736 30.1761 168.952 30.5281 168.28C30.8907 167.597 31.3867 167.069 32.0161 166.696C32.6454 166.323 33.3494 166.136 34.1281 166.136ZM34.4481 167.4C33.5734 167.4 32.8587 167.688 32.3041 168.264C31.7601 168.829 31.4881 169.619 31.4881 170.632C31.4881 171.645 31.7601 172.435 32.3041 173C32.8481 173.555 33.5627 173.832 34.4481 173.832C35.0027 173.832 35.5041 173.704 35.9521 173.448C36.4107 173.181 36.7734 172.808 37.0401 172.328C37.3067 171.837 37.4401 171.267 37.4401 170.616C37.4401 169.965 37.3067 169.4 37.0401 168.92C36.7734 168.429 36.4107 168.056 35.9521 167.8C35.5041 167.533 35.0027 167.4 34.4481 167.4ZM50.1713 166.216V175H48.7153V172.936C48.4913 173.651 48.0913 174.2 47.5153 174.584C46.95 174.957 46.2886 175.144 45.5313 175.144C44.518 175.144 43.6966 174.819 43.0673 174.168C42.438 173.507 42.1233 172.563 42.1233 171.336V166.216H43.5793V171.192C43.5793 172.067 43.8033 172.744 44.2513 173.224C44.6993 173.693 45.3073 173.928 46.0753 173.928C46.8753 173.928 47.5153 173.672 47.9953 173.16C48.4753 172.637 48.7153 171.88 48.7153 170.888V166.216H50.1713ZM53.3979 163.64C53.3979 163.373 53.4886 163.16 53.6699 163C53.8513 162.829 54.0913 162.744 54.3899 162.744C54.6886 162.744 54.9286 162.829 55.1099 163C55.2913 163.16 55.3819 163.373 55.3819 163.64C55.3819 163.907 55.2913 164.125 55.1099 164.296C54.9286 164.456 54.6886 164.536 54.3899 164.536C54.0913 164.536 53.8513 164.456 53.6699 164.296C53.4886 164.125 53.3979 163.907 53.3979 163.64ZM55.1099 166.216V175H53.6539V166.216H55.1099ZM62.2008 166.104C63.0541 166.104 63.7741 166.317 64.3608 166.744C64.9581 167.171 65.3741 167.741 65.6088 168.456V163.16H67.0648V175H65.6088V172.76C65.3741 173.475 64.9581 174.045 64.3608 174.472C63.7741 174.899 63.0541 175.112 62.2008 175.112C61.4221 175.112 60.7288 174.931 60.1208 174.568C59.5128 174.205 59.0328 173.688 58.6808 173.016C58.3395 172.333 58.1688 171.533 58.1688 170.616C58.1688 169.699 58.3395 168.899 58.6808 168.216C59.0328 167.533 59.5128 167.011 60.1208 166.648C60.7288 166.285 61.4221 166.104 62.2008 166.104ZM62.6168 167.4C61.7208 167.4 61.0008 167.688 60.4568 168.264C59.9235 168.829 59.6568 169.613 59.6568 170.616C59.6568 171.619 59.9235 172.408 60.4568 172.984C61.0008 173.549 61.7208 173.832 62.6168 173.832C63.1928 173.832 63.7048 173.699 64.1528 173.432C64.6115 173.165 64.9688 172.792 65.2248 172.312C65.4808 171.821 65.6088 171.256 65.6088 170.616C65.6088 169.976 65.4808 169.411 65.2248 168.92C64.9688 168.429 64.6115 168.056 64.1528 167.8C63.7048 167.533 63.1928 167.4 62.6168 167.4ZM78.6121 170.12C78.6121 170.429 78.5907 170.696 78.5481 170.92H71.5241C71.5561 171.923 71.8387 172.675 72.3721 173.176C72.9161 173.677 73.5774 173.928 74.3561 173.928C75.0601 173.928 75.6467 173.752 76.1161 173.4C76.5961 173.037 76.8894 172.557 76.9961 171.96H78.5481C78.4414 172.568 78.2014 173.112 77.8281 173.592C77.4654 174.072 76.9907 174.445 76.4041 174.712C75.8174 174.979 75.1561 175.112 74.4201 175.112C73.5774 175.112 72.8307 174.931 72.1801 174.568C71.5294 174.205 71.0174 173.688 70.6441 173.016C70.2814 172.333 70.1001 171.533 70.1001 170.616C70.1001 169.699 70.2814 168.899 70.6441 168.216C71.0174 167.533 71.5294 167.011 72.1801 166.648C72.8307 166.285 73.5774 166.104 74.4201 166.104C75.2734 166.104 76.0147 166.285 76.6441 166.648C77.2841 167.011 77.7694 167.496 78.1001 168.104C78.4414 168.712 78.6121 169.384 78.6121 170.12ZM77.1401 170.216C77.1721 169.565 77.0654 169.021 76.8201 168.584C76.5747 168.147 76.2387 167.821 75.8121 167.608C75.3854 167.395 74.9214 167.288 74.4201 167.288C73.6201 167.288 72.9481 167.539 72.4041 168.04C71.8601 168.531 71.5667 169.256 71.5241 170.216H77.1401ZM92.4664 166.072C93.4904 166.072 94.3118 166.403 94.9304 167.064C95.5598 167.715 95.8744 168.659 95.8744 169.896V175H94.4184V170.024C94.4184 169.16 94.2051 168.499 93.7784 168.04C93.3624 167.581 92.7864 167.352 92.0504 167.352C91.2824 167.352 90.6638 167.608 90.1944 168.12C89.7358 168.621 89.5064 169.363 89.5064 170.344V175H88.0504V170.024C88.0504 169.16 87.8371 168.499 87.4104 168.04C86.9838 167.581 86.4078 167.352 85.6824 167.352C84.9038 167.352 84.2798 167.608 83.8104 168.12C83.3518 168.621 83.1224 169.363 83.1224 170.344V175H81.6664V166.216H83.1224V168.216C83.3358 167.523 83.7144 166.995 84.2584 166.632C84.8131 166.259 85.4478 166.072 86.1624 166.072C86.9091 166.072 87.5544 166.264 88.0984 166.648C88.6531 167.021 89.0478 167.576 89.2824 168.312C89.5278 167.597 89.9384 167.048 90.5144 166.664C91.0904 166.269 91.7411 166.072 92.4664 166.072ZM107.14 166.104C108.132 166.104 108.927 166.365 109.524 166.888C110.132 167.4 110.5 168.093 110.628 168.968H109.236C109.172 168.445 108.954 168.019 108.58 167.688C108.218 167.347 107.727 167.176 107.108 167.176C106.586 167.176 106.175 167.304 105.876 167.56C105.588 167.805 105.444 168.141 105.444 168.568C105.444 168.888 105.54 169.149 105.732 169.352C105.935 169.544 106.18 169.693 106.468 169.8C106.767 169.896 107.172 170.003 107.684 170.12C108.335 170.269 108.858 170.424 109.252 170.584C109.658 170.733 109.999 170.979 110.276 171.32C110.564 171.661 110.708 172.12 110.708 172.696C110.708 173.411 110.436 173.992 109.892 174.44C109.359 174.888 108.644 175.112 107.748 175.112C106.703 175.112 105.85 174.861 105.188 174.36C104.527 173.859 104.138 173.16 104.02 172.264H105.428C105.482 172.797 105.711 173.229 106.116 173.56C106.532 173.891 107.076 174.056 107.748 174.056C108.25 174.056 108.639 173.928 108.916 173.672C109.204 173.416 109.348 173.08 109.348 172.664C109.348 172.323 109.247 172.051 109.044 171.848C108.842 171.645 108.591 171.491 108.292 171.384C107.994 171.277 107.583 171.165 107.06 171.048C106.41 170.899 105.887 170.749 105.492 170.6C105.108 170.451 104.778 170.216 104.5 169.896C104.234 169.565 104.1 169.123 104.1 168.568C104.1 167.832 104.372 167.24 104.916 166.792C105.46 166.333 106.202 166.104 107.14 166.104ZM121.884 170.12C121.884 170.429 121.863 170.696 121.82 170.92H114.796C114.828 171.923 115.111 172.675 115.644 173.176C116.188 173.677 116.849 173.928 117.628 173.928C118.332 173.928 118.919 173.752 119.388 173.4C119.868 173.037 120.161 172.557 120.268 171.96H121.82C121.713 172.568 121.473 173.112 121.1 173.592C120.737 174.072 120.263 174.445 119.676 174.712C119.089 174.979 118.428 175.112 117.692 175.112C116.849 175.112 116.103 174.931 115.452 174.568C114.801 174.205 114.289 173.688 113.916 173.016C113.553 172.333 113.372 171.533 113.372 170.616C113.372 169.699 113.553 168.899 113.916 168.216C114.289 167.533 114.801 167.011 115.452 166.648C116.103 166.285 116.849 166.104 117.692 166.104C118.545 166.104 119.287 166.285 119.916 166.648C120.556 167.011 121.041 167.496 121.372 168.104C121.713 168.712 121.884 169.384 121.884 170.12ZM120.412 170.216C120.444 169.565 120.337 169.021 120.092 168.584C119.847 168.147 119.511 167.821 119.084 167.608C118.657 167.395 118.193 167.288 117.692 167.288C116.892 167.288 116.22 167.539 115.676 168.04C115.132 168.531 114.839 169.256 114.796 170.216H120.412ZM134.233 173.72V175H133.145C132.249 175 131.577 174.787 131.129 174.36C130.692 173.933 130.473 173.219 130.473 172.216V167.48H129.161V166.216H130.473V164.024H131.945V166.216H134.217V167.48H131.945V172.248C131.945 172.813 132.047 173.203 132.249 173.416C132.463 173.619 132.825 173.72 133.337 173.72H134.233ZM145.24 170.12C145.24 170.429 145.219 170.696 145.176 170.92H138.152C138.184 171.923 138.467 172.675 139 173.176C139.544 173.677 140.206 173.928 140.984 173.928C141.688 173.928 142.275 173.752 142.744 173.4C143.224 173.037 143.518 172.557 143.624 171.96H145.176C145.07 172.568 144.83 173.112 144.456 173.592C144.094 174.072 143.619 174.445 143.032 174.712C142.446 174.979 141.784 175.112 141.048 175.112C140.206 175.112 139.459 174.931 138.808 174.568C138.158 174.205 137.646 173.688 137.272 173.016C136.91 172.333 136.728 171.533 136.728 170.616C136.728 169.699 136.91 168.899 137.272 168.216C137.646 167.533 138.158 167.011 138.808 166.648C139.459 166.285 140.206 166.104 141.048 166.104C141.902 166.104 142.643 166.285 143.272 166.648C143.912 167.011 144.398 167.496 144.728 168.104C145.07 168.712 145.24 169.384 145.24 170.12ZM143.768 170.216C143.8 169.565 143.694 169.021 143.448 168.584C143.203 168.147 142.867 167.821 142.44 167.608C142.014 167.395 141.55 167.288 141.048 167.288C140.248 167.288 139.576 167.539 139.032 168.04C138.488 168.531 138.195 169.256 138.152 170.216H143.768ZM153.351 175L151.063 171.64L148.999 175H147.383L150.263 170.472L147.367 166.216H149.031L151.255 169.48L153.287 166.216H154.903L152.039 170.632L155.015 175H153.351ZM157.267 163.64C157.267 163.373 157.357 163.16 157.539 163C157.72 162.829 157.96 162.744 158.259 162.744C158.557 162.744 158.797 162.829 158.979 163C159.16 163.16 159.251 163.373 159.251 163.64C159.251 163.907 159.16 164.125 158.979 164.296C158.797 164.456 158.557 164.536 158.259 164.536C157.96 164.536 157.72 164.456 157.539 164.296C157.357 164.125 157.267 163.907 157.267 163.64ZM158.979 166.216V175H157.523V166.216H158.979ZM166.662 173.72V175H165.574C164.678 175 164.006 174.787 163.558 174.36C163.12 173.933 162.902 173.219 162.902 172.216V167.48H161.59V166.216H162.902V164.024H164.374V166.216H166.646V167.48H164.374V172.248C164.374 172.813 164.475 173.203 164.678 173.416C164.891 173.619 165.254 173.72 165.766 173.72H166.662ZM170.436 173.928C170.586 174.397 170.66 174.835 170.66 175.24C170.66 175.795 170.522 176.237 170.244 176.568C169.967 176.909 169.551 177.08 168.996 177.08V176.456C169.263 176.456 169.455 176.381 169.572 176.232C169.7 176.093 169.764 175.869 169.764 175.56V175.416H168.948V173.928H170.436ZM183.262 166.072C184.286 166.072 185.113 166.403 185.742 167.064C186.372 167.715 186.686 168.659 186.686 169.896V175H185.23V170.024C185.23 169.149 185.006 168.477 184.558 168.008C184.11 167.539 183.502 167.304 182.734 167.304C181.934 167.304 181.294 167.565 180.814 168.088C180.334 168.6 180.094 169.352 180.094 170.344V175H178.638V166.216H180.094V168.296C180.318 167.581 180.713 167.032 181.278 166.648C181.854 166.264 182.516 166.072 183.262 166.072ZM198.15 170.12C198.15 170.429 198.128 170.696 198.086 170.92H191.062C191.094 171.923 191.376 172.675 191.91 173.176C192.454 173.677 193.115 173.928 193.894 173.928C194.598 173.928 195.184 173.752 195.654 173.4C196.134 173.037 196.427 172.557 196.534 171.96H198.086C197.979 172.568 197.739 173.112 197.366 173.592C197.003 174.072 196.528 174.445 195.942 174.712C195.355 174.979 194.694 175.112 193.958 175.112C193.115 175.112 192.368 174.931 191.718 174.568C191.067 174.205 190.555 173.688 190.182 173.016C189.819 172.333 189.638 171.533 189.638 170.616C189.638 169.699 189.819 168.899 190.182 168.216C190.555 167.533 191.067 167.011 191.718 166.648C192.368 166.285 193.115 166.104 193.958 166.104C194.811 166.104 195.552 166.285 196.182 166.648C196.822 167.011 197.307 167.496 197.638 168.104C197.979 168.712 198.15 169.384 198.15 170.12ZM196.678 170.216C196.71 169.565 196.603 169.021 196.358 168.584C196.112 168.147 195.776 167.821 195.35 167.608C194.923 167.395 194.459 167.288 193.958 167.288C193.158 167.288 192.486 167.539 191.942 168.04C191.398 168.531 191.104 169.256 191.062 170.216H196.678ZM209.907 166.104C210.76 166.104 211.48 166.317 212.067 166.744C212.664 167.171 213.08 167.741 213.315 168.456V166.216H214.771V175H213.315V172.76C213.08 173.475 212.664 174.045 212.067 174.472C211.48 174.899 210.76 175.112 209.907 175.112C209.128 175.112 208.435 174.931 207.827 174.568C207.219 174.205 206.739 173.688 206.387 173.016C206.046 172.333 205.875 171.533 205.875 170.616C205.875 169.699 206.046 168.899 206.387 168.216C206.739 167.533 207.219 167.011 207.827 166.648C208.435 166.285 209.128 166.104 209.907 166.104ZM210.323 167.4C209.427 167.4 208.707 167.688 208.163 168.264C207.63 168.829 207.363 169.613 207.363 170.616C207.363 171.619 207.63 172.408 208.163 172.984C208.707 173.549 209.427 173.832 210.323 173.832C210.899 173.832 211.411 173.699 211.859 173.432C212.318 173.165 212.675 172.792 212.931 172.312C213.187 171.821 213.315 171.256 213.315 170.616C213.315 169.976 213.187 169.411 212.931 168.92C212.675 168.429 212.318 168.056 211.859 167.8C211.411 167.533 210.899 167.4 210.323 167.4ZM221.838 166.104C222.692 166.104 223.412 166.317 223.998 166.744C224.596 167.171 225.012 167.741 225.246 168.456V163.16H226.702V175H225.246V172.76C225.012 173.475 224.596 174.045 223.998 174.472C223.412 174.899 222.692 175.112 221.838 175.112C221.06 175.112 220.366 174.931 219.758 174.568C219.15 174.205 218.67 173.688 218.318 173.016C217.977 172.333 217.806 171.533 217.806 170.616C217.806 169.699 217.977 168.899 218.318 168.216C218.67 167.533 219.15 167.011 219.758 166.648C220.366 166.285 221.06 166.104 221.838 166.104ZM222.254 167.4C221.358 167.4 220.638 167.688 220.094 168.264C219.561 168.829 219.294 169.613 219.294 170.616C219.294 171.619 219.561 172.408 220.094 172.984C220.638 173.549 221.358 173.832 222.254 173.832C222.83 173.832 223.342 173.699 223.79 173.432C224.249 173.165 224.606 172.792 224.862 172.312C225.118 171.821 225.246 171.256 225.246 170.616C225.246 169.976 225.118 169.411 224.862 168.92C224.606 168.429 224.249 168.056 223.79 167.8C223.342 167.533 222.83 167.4 222.254 167.4ZM231.242 173.288V175H229.482V173.288H231.242Z" fill="#323232"/>
<path d="M6.55328 100.012V104.156H13.2453V107.768H6.55328V112.164H14.0853V116H1.76528V96.204H14.0853V100.012H6.55328ZM27.2163 100.208C29.0083 100.208 30.427 100.805 31.4723 102C32.5363 103.195 33.0683 104.837 33.0683 106.928V116H28.2803V107.488C28.2803 106.443 28.0003 105.631 27.4403 105.052C26.899 104.455 26.171 104.156 25.2563 104.156C24.2857 104.156 23.511 104.464 22.9323 105.08C22.3723 105.696 22.0923 106.573 22.0923 107.712V116H17.3043V100.376H22.0923V103.232C22.5403 102.299 23.203 101.561 24.0803 101.02C24.9763 100.479 26.0217 100.208 27.2163 100.208ZM45.5742 111.884V116H43.4182C41.5889 116 40.1609 115.552 39.1342 114.656C38.1262 113.741 37.6222 112.239 37.6222 110.148V104.408H35.5222V100.376H37.6222V96.54H42.4102V100.376H45.5462V104.408H42.4102V110.232C42.4102 110.848 42.5316 111.277 42.7742 111.52C43.0356 111.763 43.4649 111.884 44.0622 111.884H45.5742ZM53.5533 103.316C54.1506 102.364 54.9159 101.608 55.8493 101.048C56.8013 100.488 57.8279 100.208 58.9293 100.208V105.332H57.5573C56.2879 105.332 55.2986 105.603 54.5893 106.144C53.8986 106.685 53.5533 107.6 53.5533 108.888V116H48.7653V100.376H53.5533V103.316ZM76.2733 107.768C76.2733 108.16 76.2266 108.589 76.1333 109.056H65.2973C65.3533 110.232 65.6519 111.081 66.1933 111.604C66.7346 112.108 67.4253 112.36 68.2653 112.36C68.9746 112.36 69.5626 112.183 70.0293 111.828C70.4959 111.473 70.8039 111.016 70.9533 110.456H76.0213C75.8159 111.557 75.3679 112.547 74.6773 113.424C73.9866 114.283 73.1093 114.964 72.0453 115.468C70.9813 115.953 69.7959 116.196 68.4893 116.196C66.9586 116.196 65.5959 115.879 64.4013 115.244C63.2253 114.591 62.3013 113.657 61.6292 112.444C60.9573 111.231 60.6213 109.812 60.6213 108.188C60.6213 106.545 60.9479 105.127 61.6013 103.932C62.2733 102.719 63.2066 101.795 64.4013 101.16C65.5959 100.507 66.9586 100.18 68.4893 100.18C70.0386 100.18 71.4013 100.497 72.5773 101.132C73.7533 101.767 74.6586 102.663 75.2933 103.82C75.9466 104.959 76.2733 106.275 76.2733 107.768ZM71.4293 107.04C71.4479 106.013 71.1679 105.248 70.5893 104.744C70.0293 104.221 69.3293 103.96 68.4893 103.96C67.6119 103.96 66.8839 104.221 66.3053 104.744C65.7266 105.267 65.3999 106.032 65.3253 107.04H71.4293ZM89.0132 100.18C90.3012 100.18 91.4492 100.507 92.4572 101.16C93.4839 101.795 94.2865 102.719 94.8652 103.932C95.4625 105.127 95.7612 106.545 95.7612 108.188C95.7612 109.812 95.4625 111.231 94.8652 112.444C94.2865 113.657 93.4839 114.591 92.4572 115.244C91.4492 115.879 90.3012 116.196 89.0132 116.196C87.8185 116.196 86.7919 115.925 85.9332 115.384C85.0745 114.843 84.4492 114.105 84.0572 113.172V123.448H79.2692V100.376H84.0572V103.204C84.4492 102.271 85.0745 101.533 85.9332 100.992C86.7919 100.451 87.8185 100.18 89.0132 100.18ZM87.4732 104.38C86.4652 104.38 85.6345 104.725 84.9812 105.416C84.3465 106.088 84.0292 107.012 84.0292 108.188C84.0292 109.345 84.3465 110.269 84.9812 110.96C85.6345 111.651 86.4652 111.996 87.4732 111.996C88.4999 111.996 89.3212 111.66 89.9372 110.988C90.5719 110.316 90.8892 109.383 90.8892 108.188C90.8892 106.993 90.5719 106.06 89.9372 105.388C89.3212 104.716 88.4999 104.38 87.4732 104.38ZM103.534 103.316C104.131 102.364 104.896 101.608 105.83 101.048C106.782 100.488 107.808 100.208 108.91 100.208V105.332H107.538C106.268 105.332 105.279 105.603 104.57 106.144C103.879 106.685 103.534 107.6 103.534 108.888V116H98.7458V100.376H103.534V103.316ZM126.254 107.768C126.254 108.16 126.207 108.589 126.114 109.056H115.278C115.334 110.232 115.632 111.081 116.174 111.604C116.715 112.108 117.406 112.36 118.246 112.36C118.955 112.36 119.543 112.183 120.01 111.828C120.476 111.473 120.784 111.016 120.934 110.456H126.002C125.796 111.557 125.348 112.547 124.658 113.424C123.967 114.283 123.09 114.964 122.026 115.468C120.962 115.953 119.776 116.196 118.47 116.196C116.939 116.196 115.576 115.879 114.382 115.244C113.206 114.591 112.282 113.657 111.61 112.444C110.938 111.231 110.602 109.812 110.602 108.188C110.602 106.545 110.928 105.127 111.582 103.932C112.254 102.719 113.187 101.795 114.382 101.16C115.576 100.507 116.939 100.18 118.47 100.18C120.019 100.18 121.382 100.497 122.558 101.132C123.734 101.767 124.639 102.663 125.274 103.82C125.927 104.959 126.254 106.275 126.254 107.768ZM121.41 107.04C121.428 106.013 121.148 105.248 120.57 104.744C120.01 104.221 119.31 103.96 118.47 103.96C117.592 103.96 116.864 104.221 116.286 104.744C115.707 105.267 115.38 106.032 115.306 107.04H121.41ZM139.162 100.208C140.954 100.208 142.372 100.805 143.418 102C144.482 103.195 145.014 104.837 145.014 106.928V116H140.226V107.488C140.226 106.443 139.946 105.631 139.386 105.052C138.844 104.455 138.116 104.156 137.202 104.156C136.231 104.156 135.456 104.464 134.878 105.08C134.318 105.696 134.038 106.573 134.038 107.712V116H129.25V100.376H134.038V103.232C134.486 102.299 135.148 101.561 136.026 101.02C136.922 100.479 137.967 100.208 139.162 100.208ZM163.512 107.768C163.512 108.16 163.465 108.589 163.372 109.056H152.536C152.592 110.232 152.89 111.081 153.432 111.604C153.973 112.108 154.664 112.36 155.504 112.36C156.213 112.36 156.801 112.183 157.268 111.828C157.734 111.473 158.042 111.016 158.192 110.456H163.26C163.054 111.557 162.606 112.547 161.916 113.424C161.225 114.283 160.348 114.964 159.284 115.468C158.22 115.953 157.034 116.196 155.728 116.196C154.197 116.196 152.834 115.879 151.64 115.244C150.464 114.591 149.54 113.657 148.868 112.444C148.196 111.231 147.86 109.812 147.86 108.188C147.86 106.545 148.186 105.127 148.84 103.932C149.512 102.719 150.445 101.795 151.64 101.16C152.834 100.507 154.197 100.18 155.728 100.18C157.277 100.18 158.64 100.497 159.816 101.132C160.992 101.767 161.897 102.663 162.532 103.82C163.185 104.959 163.512 106.275 163.512 107.768ZM158.668 107.04C158.686 106.013 158.406 105.248 157.828 104.744C157.268 104.221 156.568 103.96 155.728 103.96C154.85 103.96 154.122 104.221 153.544 104.744C152.965 105.267 152.638 106.032 152.564 107.04H158.668ZM182.047 100.376V116H177.231V113.172C176.783 114.087 176.111 114.815 175.215 115.356C174.338 115.897 173.311 116.168 172.135 116.168C170.343 116.168 168.915 115.571 167.851 114.376C166.806 113.181 166.283 111.539 166.283 109.448V100.376H171.043V108.86C171.043 109.924 171.314 110.755 171.855 111.352C172.415 111.931 173.162 112.22 174.095 112.22C175.066 112.22 175.831 111.912 176.391 111.296C176.951 110.68 177.231 109.803 177.231 108.664V100.376H182.047ZM190.635 103.316C191.233 102.364 191.998 101.608 192.931 101.048C193.883 100.488 194.91 100.208 196.011 100.208V105.332H194.639C193.37 105.332 192.381 105.603 191.671 106.144C190.981 106.685 190.635 107.6 190.635 108.888V116H185.847V100.376H190.635V103.316ZM204.199 100.18C206.178 100.18 207.755 100.675 208.931 101.664C210.126 102.653 210.873 103.96 211.171 105.584H206.691C206.561 104.949 206.262 104.455 205.795 104.1C205.347 103.727 204.778 103.54 204.087 103.54C203.546 103.54 203.135 103.661 202.855 103.904C202.575 104.128 202.435 104.455 202.435 104.884C202.435 105.369 202.687 105.733 203.191 105.976C203.714 106.219 204.526 106.461 205.627 106.704C206.822 106.984 207.802 107.273 208.567 107.572C209.333 107.852 209.995 108.319 210.555 108.972C211.115 109.625 211.395 110.503 211.395 111.604C211.395 112.5 211.153 113.293 210.667 113.984C210.182 114.675 209.482 115.216 208.567 115.608C207.653 116 206.57 116.196 205.319 116.196C203.21 116.196 201.521 115.729 200.251 114.796C198.982 113.863 198.207 112.528 197.927 110.792H202.547C202.622 111.464 202.902 111.977 203.387 112.332C203.891 112.687 204.535 112.864 205.319 112.864C205.861 112.864 206.271 112.743 206.551 112.5C206.831 112.239 206.971 111.903 206.971 111.492C206.971 110.951 206.71 110.568 206.187 110.344C205.683 110.101 204.853 109.849 203.695 109.588C202.538 109.345 201.586 109.084 200.839 108.804C200.093 108.524 199.449 108.076 198.907 107.46C198.366 106.825 198.095 105.967 198.095 104.884C198.095 103.484 198.627 102.355 199.691 101.496C200.755 100.619 202.258 100.18 204.199 100.18ZM224.459 100.208C226.251 100.208 227.669 100.805 228.715 102C229.779 103.195 230.311 104.837 230.311 106.928V116H225.523V107.488C225.523 106.443 225.243 105.631 224.683 105.052C224.141 104.455 223.413 104.156 222.499 104.156C221.528 104.156 220.753 104.464 220.175 105.08C219.615 105.696 219.335 106.573 219.335 107.712V116H214.547V95.28H219.335V103.232C219.783 102.299 220.445 101.561 221.323 101.02C222.219 100.479 223.264 100.208 224.459 100.208ZM233.52 95.98C233.52 95.252 233.782 94.6547 234.304 94.188C234.827 93.7027 235.518 93.46 236.376 93.46C237.235 93.46 237.926 93.7027 238.448 94.188C238.971 94.6547 239.232 95.252 239.232 95.98C239.232 96.6893 238.971 97.2867 238.448 97.772C237.926 98.2387 237.235 98.472 236.376 98.472C235.518 98.472 234.827 98.2387 234.304 97.772C233.782 97.2867 233.52 96.6893 233.52 95.98ZM238.756 100.376V116H233.968V100.376H238.756ZM252.306 100.18C253.594 100.18 254.742 100.507 255.75 101.16C256.777 101.795 257.579 102.719 258.158 103.932C258.755 105.127 259.054 106.545 259.054 108.188C259.054 109.812 258.755 111.231 258.158 112.444C257.579 113.657 256.777 114.591 255.75 115.244C254.742 115.879 253.594 116.196 252.306 116.196C251.111 116.196 250.085 115.925 249.226 115.384C248.367 114.843 247.742 114.105 247.35 113.172V123.448H242.562V100.376H247.35V103.204C247.742 102.271 248.367 101.533 249.226 100.992C250.085 100.451 251.111 100.18 252.306 100.18ZM250.766 104.38C249.758 104.38 248.927 104.725 248.274 105.416C247.639 106.088 247.322 107.012 247.322 108.188C247.322 109.345 247.639 110.269 248.274 110.96C248.927 111.651 249.758 111.996 250.766 111.996C251.793 111.996 252.614 111.66 253.23 110.988C253.865 110.316 254.182 109.383 254.182 108.188C254.182 106.993 253.865 106.06 253.23 105.388C252.614 104.716 251.793 104.38 250.766 104.38Z" fill="#323232"/>
<circle cx="130.5" cy="35" r="35" fill="#F78434"/>
<path d="M134.75 20H141.5V27.5H134.75V20Z" fill="white"/>
<path d="M119 20H125.75V27.5H119V20Z" fill="white"/>
<ellipse cx="130.625" cy="41" rx="4.125" ry="3.75" fill="white"/>
<path fill-rule="evenodd" clip-rule="evenodd" d="M121.25 41.375C121.25 36.6116 125.279 32.75 130.25 32.75C135.221 32.75 139.25 36.6116 139.25 41.375C139.25 46.1384 135.221 50 130.25 50C125.279 50 121.25 46.1384 121.25 41.375ZM124.393 41.375C124.393 44.4699 127.021 46.9878 130.25 46.9878C133.479 46.9878 136.107 44.4699 136.107 41.375C136.107 38.2801 133.479 35.7622 130.25 35.7622C127.021 35.7622 124.393 38.28 124.393 41.375Z" fill="white"/>
<path d="M126.348 31.3905C127.122 31.0495 127.926 30.8114 128.75 30.6768L127.139 29H120.5L124.102 32.75C124.791 32.2009 125.542 31.7453 126.348 31.3905Z" fill="white"/>
<path d="M131.75 30.6768C132.574 30.8113 133.378 31.0494 134.152 31.3905C134.958 31.7452 135.709 32.2008 136.398 32.75L140 29H133.361C132.927 29.4516 132.32 30.0832 131.75 30.6768Z" fill="white"/>
</svg>
