<svg width="248" height="183" viewBox="0 0 248 183" fill="none" xmlns="http://www.w3.org/2000/svg">
<path d="M17.6737 136.72V137.904H14.4898V148H13.0338V137.904H9.84975V136.72H17.6737ZM24.2551 139.104C25.0978 139.104 25.8498 139.285 26.5111 139.648C27.1831 140.011 27.7058 140.533 28.0791 141.216C28.4631 141.899 28.6551 142.699 28.6551 143.616C28.6551 144.533 28.4631 145.333 28.0791 146.016C27.7058 146.688 27.1831 147.205 26.5111 147.568C25.8498 147.931 25.0978 148.112 24.2551 148.112C23.4125 148.112 22.6551 147.931 21.9831 147.568C21.3218 147.205 20.7991 146.688 20.4151 146.016C20.0311 145.333 19.8391 144.533 19.8391 143.616C19.8391 142.699 20.0311 141.899 20.4151 141.216C20.7991 140.533 21.3218 140.011 21.9831 139.648C22.6551 139.285 23.4125 139.104 24.2551 139.104ZM24.2551 140.384C23.7325 140.384 23.2471 140.501 22.7991 140.736C22.3618 140.971 22.0045 141.333 21.7271 141.824C21.4605 142.304 21.3271 142.901 21.3271 143.616C21.3271 144.32 21.4605 144.917 21.7271 145.408C22.0045 145.888 22.3618 146.245 22.7991 146.48C23.2471 146.715 23.7325 146.832 24.2551 146.832C24.7778 146.832 25.2578 146.715 25.6951 146.48C26.1431 146.245 26.5005 145.888 26.7671 145.408C27.0445 144.917 27.1831 144.32 27.1831 143.616C27.1831 142.901 27.0445 142.304 26.7671 141.824C26.5005 141.333 26.1431 140.971 25.6951 140.736C25.2578 140.501 24.7778 140.384 24.2551 140.384ZM33.1584 140.992C33.4464 140.384 33.8677 139.915 34.4224 139.584C34.977 139.243 35.6384 139.072 36.4064 139.072V140.656H35.9584C35.137 140.656 34.465 140.869 33.9424 141.296C33.4197 141.712 33.1584 142.405 33.1584 143.376V148H31.7024V139.216H33.1584V140.992ZM42.689 139.136C43.4997 139.136 44.1877 139.333 44.753 139.728C45.329 140.112 45.745 140.635 46.001 141.296V139.216H47.457V152.16H46.001V145.856C45.7343 146.549 45.313 147.099 44.737 147.504C44.1717 147.909 43.489 148.112 42.689 148.112C41.9103 148.112 41.2063 147.931 40.577 147.568C39.9477 147.195 39.4517 146.672 39.089 146C38.737 145.317 38.561 144.528 38.561 143.632C38.561 142.736 38.737 141.952 39.089 141.28C39.4517 140.597 39.9477 140.069 40.577 139.696C41.2063 139.323 41.9103 139.136 42.689 139.136ZM43.009 140.4C42.1343 140.4 41.4197 140.688 40.865 141.264C40.321 141.829 40.049 142.619 40.049 143.632C40.049 144.645 40.321 145.435 40.865 146C41.409 146.555 42.1237 146.832 43.009 146.832C43.5637 146.832 44.065 146.704 44.513 146.448C44.9717 146.181 45.3343 145.808 45.601 145.328C45.8677 144.837 46.001 144.267 46.001 143.616C46.001 142.965 45.8677 142.4 45.601 141.92C45.3343 141.429 44.9717 141.056 44.513 140.8C44.065 140.533 43.5637 140.4 43.009 140.4ZM58.7322 139.216V148H57.2762V145.936C57.0522 146.651 56.6522 147.2 56.0762 147.584C55.5109 147.957 54.8496 148.144 54.0922 148.144C53.0789 148.144 52.2576 147.819 51.6282 147.168C50.9989 146.507 50.6842 145.563 50.6842 144.336V139.216H52.1402V144.192C52.1402 145.067 52.3642 145.744 52.8122 146.224C53.2602 146.693 53.8682 146.928 54.6362 146.928C55.4362 146.928 56.0762 146.672 56.5562 146.16C57.0362 145.637 57.2762 144.88 57.2762 143.888V139.216H58.7322ZM70.2949 143.12C70.2949 143.429 70.2735 143.696 70.2309 143.92H63.2069C63.2389 144.923 63.5215 145.675 64.0549 146.176C64.5989 146.677 65.2602 146.928 66.0389 146.928C66.7429 146.928 67.3295 146.752 67.7989 146.4C68.2789 146.037 68.5722 145.557 68.6789 144.96H70.2309C70.1242 145.568 69.8842 146.112 69.5109 146.592C69.1482 147.072 68.6735 147.445 68.0869 147.712C67.5002 147.979 66.8389 148.112 66.1029 148.112C65.2602 148.112 64.5135 147.931 63.8629 147.568C63.2122 147.205 62.7002 146.688 62.3269 146.016C61.9642 145.333 61.7829 144.533 61.7829 143.616C61.7829 142.699 61.9642 141.899 62.3269 141.216C62.7002 140.533 63.2122 140.011 63.8629 139.648C64.5135 139.285 65.2602 139.104 66.1029 139.104C66.9562 139.104 67.6975 139.285 68.3269 139.648C68.9669 140.011 69.4522 140.496 69.7829 141.104C70.1242 141.712 70.2949 142.384 70.2949 143.12ZM68.8229 143.216C68.8549 142.565 68.7482 142.021 68.5029 141.584C68.2575 141.147 67.9215 140.821 67.4949 140.608C67.0682 140.395 66.6042 140.288 66.1029 140.288C65.3029 140.288 64.6309 140.539 64.0869 141.04C63.5429 141.531 63.2495 142.256 63.2069 143.216H68.8229ZM84.1493 139.072C85.1733 139.072 85.9946 139.403 86.6133 140.064C87.2426 140.715 87.5573 141.659 87.5573 142.896V148H86.1013V143.024C86.1013 142.16 85.8879 141.499 85.4613 141.04C85.0453 140.581 84.4693 140.352 83.7333 140.352C82.9653 140.352 82.3466 140.608 81.8773 141.12C81.4186 141.621 81.1893 142.363 81.1893 143.344V148H79.7333V143.024C79.7333 142.16 79.5199 141.499 79.0933 141.04C78.6666 140.581 78.0906 140.352 77.3653 140.352C76.5866 140.352 75.9626 140.608 75.4933 141.12C75.0346 141.621 74.8053 142.363 74.8053 143.344V148H73.3493V139.216H74.8053V141.216C75.0186 140.523 75.3973 139.995 75.9413 139.632C76.4959 139.259 77.1306 139.072 77.8453 139.072C78.5919 139.072 79.2373 139.264 79.7813 139.648C80.3359 140.021 80.7306 140.576 80.9653 141.312C81.2106 140.597 81.6213 140.048 82.1973 139.664C82.7733 139.269 83.4239 139.072 84.1493 139.072ZM99.6711 139.104C100.524 139.104 101.244 139.317 101.831 139.744C102.428 140.171 102.844 140.741 103.079 141.456V136.16H104.535V148H103.079V145.76C102.844 146.475 102.428 147.045 101.831 147.472C101.244 147.899 100.524 148.112 99.6711 148.112C98.8925 148.112 98.1991 147.931 97.5911 147.568C96.9831 147.205 96.5031 146.688 96.1511 146.016C95.8098 145.333 95.6391 144.533 95.6391 143.616C95.6391 142.699 95.8098 141.899 96.1511 141.216C96.5031 140.533 96.9831 140.011 97.5911 139.648C98.1991 139.285 98.8925 139.104 99.6711 139.104ZM100.087 140.4C99.1911 140.4 98.4711 140.688 97.9271 141.264C97.3938 141.829 97.1271 142.613 97.1271 143.616C97.1271 144.619 97.3938 145.408 97.9271 145.984C98.4711 146.549 99.1911 146.832 100.087 146.832C100.663 146.832 101.175 146.699 101.623 146.432C102.082 146.165 102.439 145.792 102.695 145.312C102.951 144.821 103.079 144.256 103.079 143.616C103.079 142.976 102.951 142.411 102.695 141.92C102.439 141.429 102.082 141.056 101.623 140.8C101.175 140.533 100.663 140.4 100.087 140.4ZM116.082 143.12C116.082 143.429 116.061 143.696 116.018 143.92H108.994C109.026 144.923 109.309 145.675 109.842 146.176C110.386 146.677 111.048 146.928 111.826 146.928C112.53 146.928 113.117 146.752 113.586 146.4C114.066 146.037 114.36 145.557 114.466 144.96H116.018C115.912 145.568 115.672 146.112 115.298 146.592C114.936 147.072 114.461 147.445 113.874 147.712C113.288 147.979 112.626 148.112 111.89 148.112C111.048 148.112 110.301 147.931 109.65 147.568C109 147.205 108.488 146.688 108.114 146.016C107.752 145.333 107.57 144.533 107.57 143.616C107.57 142.699 107.752 141.899 108.114 141.216C108.488 140.533 109 140.011 109.65 139.648C110.301 139.285 111.048 139.104 111.89 139.104C112.744 139.104 113.485 139.285 114.114 139.648C114.754 140.011 115.24 140.496 115.57 141.104C115.912 141.712 116.082 142.384 116.082 143.12ZM114.61 143.216C114.642 142.565 114.536 142.021 114.29 141.584C114.045 141.147 113.709 140.821 113.282 140.608C112.856 140.395 112.392 140.288 111.89 140.288C111.09 140.288 110.418 140.539 109.874 141.04C109.33 141.531 109.037 142.256 108.994 143.216H114.61ZM123.329 146.72V148H122.241C121.345 148 120.673 147.787 120.225 147.36C119.787 146.933 119.569 146.219 119.569 145.216V140.48H118.257V139.216H119.569V137.024H121.041V139.216H123.313V140.48H121.041V145.248C121.041 145.813 121.142 146.203 121.345 146.416C121.558 146.619 121.921 146.72 122.433 146.72H123.329ZM127.712 140.992C128 140.384 128.421 139.915 128.976 139.584C129.53 139.243 130.192 139.072 130.96 139.072V140.656H130.512C129.69 140.656 129.018 140.869 128.496 141.296C127.973 141.712 127.712 142.405 127.712 143.376V148H126.256V139.216H127.712V140.992ZM137.146 139.104C137.999 139.104 138.719 139.317 139.306 139.744C139.903 140.171 140.319 140.741 140.554 141.456V139.216H142.01V148H140.554V145.76C140.319 146.475 139.903 147.045 139.306 147.472C138.719 147.899 137.999 148.112 137.146 148.112C136.367 148.112 135.674 147.931 135.066 147.568C134.458 147.205 133.978 146.688 133.626 146.016C133.285 145.333 133.114 144.533 133.114 143.616C133.114 142.699 133.285 141.899 133.626 141.216C133.978 140.533 134.458 140.011 135.066 139.648C135.674 139.285 136.367 139.104 137.146 139.104ZM137.562 140.4C136.666 140.4 135.946 140.688 135.402 141.264C134.869 141.829 134.602 142.613 134.602 143.616C134.602 144.619 134.869 145.408 135.402 145.984C135.946 146.549 136.666 146.832 137.562 146.832C138.138 146.832 138.65 146.699 139.098 146.432C139.557 146.165 139.914 145.792 140.17 145.312C140.426 144.821 140.554 144.256 140.554 143.616C140.554 142.976 140.426 142.411 140.17 141.92C139.914 141.429 139.557 141.056 139.098 140.8C138.65 140.533 138.138 140.4 137.562 140.4ZM150.533 148L148.245 144.64L146.181 148H144.565L147.445 143.472L144.549 139.216H146.213L148.437 142.48L150.469 139.216H152.085L149.221 143.632L152.197 148H150.533ZM154.45 136.64C154.45 136.373 154.54 136.16 154.722 136C154.903 135.829 155.143 135.744 155.442 135.744C155.74 135.744 155.98 135.829 156.162 136C156.343 136.16 156.434 136.373 156.434 136.64C156.434 136.907 156.343 137.125 156.162 137.296C155.98 137.456 155.74 137.536 155.442 137.536C155.143 137.536 154.903 137.456 154.722 137.296C154.54 137.125 154.45 136.907 154.45 136.64ZM156.162 139.216V148H154.706V139.216H156.162ZM163.844 146.72V148H162.756C161.86 148 161.188 147.787 160.74 147.36C160.303 146.933 160.084 146.219 160.084 145.216V140.48H158.772V139.216H160.084V137.024H161.556V139.216H163.828V140.48H161.556V145.248C161.556 145.813 161.658 146.203 161.86 146.416C162.074 146.619 162.436 146.72 162.948 146.72H163.844ZM176.498 139.072C177.522 139.072 178.349 139.403 178.978 140.064C179.608 140.715 179.922 141.659 179.922 142.896V148H178.466V143.024C178.466 142.149 178.242 141.477 177.794 141.008C177.346 140.539 176.738 140.304 175.97 140.304C175.17 140.304 174.53 140.565 174.05 141.088C173.57 141.6 173.33 142.352 173.33 143.344V148H171.874V136.16H173.33V141.296C173.554 140.581 173.949 140.032 174.514 139.648C175.09 139.264 175.752 139.072 176.498 139.072ZM187.289 139.104C188.132 139.104 188.884 139.285 189.545 139.648C190.217 140.011 190.74 140.533 191.113 141.216C191.497 141.899 191.689 142.699 191.689 143.616C191.689 144.533 191.497 145.333 191.113 146.016C190.74 146.688 190.217 147.205 189.545 147.568C188.884 147.931 188.132 148.112 187.289 148.112C186.447 148.112 185.689 147.931 185.017 147.568C184.356 147.205 183.833 146.688 183.449 146.016C183.065 145.333 182.873 144.533 182.873 143.616C182.873 142.699 183.065 141.899 183.449 141.216C183.833 140.533 184.356 140.011 185.017 139.648C185.689 139.285 186.447 139.104 187.289 139.104ZM187.289 140.384C186.767 140.384 186.281 140.501 185.833 140.736C185.396 140.971 185.039 141.333 184.761 141.824C184.495 142.304 184.361 142.901 184.361 143.616C184.361 144.32 184.495 144.917 184.761 145.408C185.039 145.888 185.396 146.245 185.833 146.48C186.281 146.715 186.767 146.832 187.289 146.832C187.812 146.832 188.292 146.715 188.729 146.48C189.177 146.245 189.535 145.888 189.801 145.408C190.079 144.917 190.217 144.32 190.217 143.616C190.217 142.901 190.079 142.304 189.801 141.824C189.535 141.333 189.177 140.971 188.729 140.736C188.292 140.501 187.812 140.384 187.289 140.384ZM197.489 139.104C198.481 139.104 199.275 139.365 199.873 139.888C200.481 140.4 200.849 141.093 200.977 141.968H199.585C199.521 141.445 199.302 141.019 198.929 140.688C198.566 140.347 198.075 140.176 197.457 140.176C196.934 140.176 196.523 140.304 196.225 140.56C195.937 140.805 195.793 141.141 195.793 141.568C195.793 141.888 195.889 142.149 196.081 142.352C196.283 142.544 196.529 142.693 196.817 142.8C197.115 142.896 197.521 143.003 198.033 143.12C198.683 143.269 199.206 143.424 199.601 143.584C200.006 143.733 200.347 143.979 200.625 144.32C200.913 144.661 201.057 145.12 201.057 145.696C201.057 146.411 200.785 146.992 200.241 147.44C199.707 147.888 198.993 148.112 198.097 148.112C197.051 148.112 196.198 147.861 195.537 147.36C194.875 146.859 194.486 146.16 194.369 145.264H195.777C195.83 145.797 196.059 146.229 196.465 146.56C196.881 146.891 197.425 147.056 198.097 147.056C198.598 147.056 198.987 146.928 199.265 146.672C199.553 146.416 199.697 146.08 199.697 145.664C199.697 145.323 199.595 145.051 199.393 144.848C199.19 144.645 198.939 144.491 198.641 144.384C198.342 144.277 197.931 144.165 197.409 144.048C196.758 143.899 196.235 143.749 195.841 143.6C195.457 143.451 195.126 143.216 194.849 142.896C194.582 142.565 194.449 142.123 194.449 141.568C194.449 140.832 194.721 140.24 195.265 139.792C195.809 139.333 196.55 139.104 197.489 139.104ZM208.344 146.72V148H207.256C206.36 148 205.688 147.787 205.24 147.36C204.803 146.933 204.584 146.219 204.584 145.216V140.48H203.272V139.216H204.584V137.024H206.056V139.216H208.328V140.48H206.056V145.248C206.056 145.813 206.158 146.203 206.36 146.416C206.574 146.619 206.936 146.72 207.448 146.72H208.344ZM211.015 136.64C211.015 136.373 211.106 136.16 211.287 136C211.468 135.829 211.708 135.744 212.007 135.744C212.306 135.744 212.546 135.829 212.727 136C212.908 136.16 212.999 136.373 212.999 136.64C212.999 136.907 212.908 137.125 212.727 137.296C212.546 137.456 212.306 137.536 212.007 137.536C211.708 137.536 211.468 137.456 211.287 137.296C211.106 137.125 211.015 136.907 211.015 136.64ZM212.727 139.216V148H211.271V139.216H212.727ZM229.401 143.12C229.401 143.429 229.38 143.696 229.337 143.92H222.313C222.345 144.923 222.628 145.675 223.161 146.176C223.705 146.677 224.366 146.928 225.145 146.928C225.849 146.928 226.436 146.752 226.905 146.4C227.385 146.037 227.678 145.557 227.785 144.96H229.337C229.23 145.568 228.99 146.112 228.617 146.592C228.254 147.072 227.78 147.445 227.193 147.712C226.606 147.979 225.945 148.112 225.209 148.112C224.366 148.112 223.62 147.931 222.969 147.568C222.318 147.205 221.806 146.688 221.433 146.016C221.07 145.333 220.889 144.533 220.889 143.616C220.889 142.699 221.07 141.899 221.433 141.216C221.806 140.533 222.318 140.011 222.969 139.648C223.62 139.285 224.366 139.104 225.209 139.104C226.062 139.104 226.804 139.285 227.433 139.648C228.073 140.011 228.558 140.496 228.889 141.104C229.23 141.712 229.401 142.384 229.401 143.12ZM227.929 143.216C227.961 142.565 227.854 142.021 227.609 141.584C227.364 141.147 227.028 140.821 226.601 140.608C226.174 140.395 225.71 140.288 225.209 140.288C224.409 140.288 223.737 140.539 223.193 141.04C222.649 141.531 222.356 142.256 222.313 143.216H227.929ZM236.648 146.72V148H235.56C234.664 148 233.992 147.787 233.544 147.36C233.106 146.933 232.888 146.219 232.888 145.216V140.48H231.576V139.216H232.888V137.024H234.36V139.216H236.632V140.48H234.36V145.248C234.36 145.813 234.461 146.203 234.664 146.416C234.877 146.619 235.24 146.72 235.752 146.72H236.648ZM27.6281 166.136C28.4387 166.136 29.1267 166.333 29.6921 166.728C30.2681 167.112 30.6841 167.635 30.9401 168.296V166.216H32.3961V179.16H30.9401V172.856C30.6734 173.549 30.2521 174.099 29.6761 174.504C29.1107 174.909 28.4281 175.112 27.6281 175.112C26.8494 175.112 26.1454 174.931 25.5161 174.568C24.8867 174.195 24.3907 173.672 24.0281 173C23.6761 172.317 23.5001 171.528 23.5001 170.632C23.5001 169.736 23.6761 168.952 24.0281 168.28C24.3907 167.597 24.8867 167.069 25.5161 166.696C26.1454 166.323 26.8494 166.136 27.6281 166.136ZM27.9481 167.4C27.0734 167.4 26.3587 167.688 25.8041 168.264C25.2601 168.829 24.9881 169.619 24.9881 170.632C24.9881 171.645 25.2601 172.435 25.8041 173C26.3481 173.555 27.0627 173.832 27.9481 173.832C28.5027 173.832 29.0041 173.704 29.4521 173.448C29.9107 173.181 30.2734 172.808 30.5401 172.328C30.8067 171.837 30.9401 171.267 30.9401 170.616C30.9401 169.965 30.8067 169.4 30.5401 168.92C30.2734 168.429 29.9107 168.056 29.4521 167.8C29.0041 167.533 28.5027 167.4 27.9481 167.4ZM43.6713 166.216V175H42.2153V172.936C41.9913 173.651 41.5913 174.2 41.0153 174.584C40.45 174.957 39.7886 175.144 39.0313 175.144C38.018 175.144 37.1966 174.819 36.5673 174.168C35.938 173.507 35.6233 172.563 35.6233 171.336V166.216H37.0793V171.192C37.0793 172.067 37.3033 172.744 37.7513 173.224C38.1993 173.693 38.8073 173.928 39.5753 173.928C40.3753 173.928 41.0153 173.672 41.4953 173.16C41.9753 172.637 42.2153 171.88 42.2153 170.888V166.216H43.6713ZM46.8979 163.64C46.8979 163.373 46.9886 163.16 47.1699 163C47.3513 162.829 47.5913 162.744 47.8899 162.744C48.1886 162.744 48.4286 162.829 48.6099 163C48.7913 163.16 48.8819 163.373 48.8819 163.64C48.8819 163.907 48.7913 164.125 48.6099 164.296C48.4286 164.456 48.1886 164.536 47.8899 164.536C47.5913 164.536 47.3513 164.456 47.1699 164.296C46.9886 164.125 46.8979 163.907 46.8979 163.64ZM48.6099 166.216V175H47.1539V166.216H48.6099ZM55.7008 166.104C56.5541 166.104 57.2741 166.317 57.8608 166.744C58.4581 167.171 58.8741 167.741 59.1088 168.456V163.16H60.5648V175H59.1088V172.76C58.8741 173.475 58.4581 174.045 57.8608 174.472C57.2741 174.899 56.5541 175.112 55.7008 175.112C54.9221 175.112 54.2288 174.931 53.6208 174.568C53.0128 174.205 52.5328 173.688 52.1808 173.016C51.8395 172.333 51.6688 171.533 51.6688 170.616C51.6688 169.699 51.8395 168.899 52.1808 168.216C52.5328 167.533 53.0128 167.011 53.6208 166.648C54.2288 166.285 54.9221 166.104 55.7008 166.104ZM56.1168 167.4C55.2208 167.4 54.5008 167.688 53.9568 168.264C53.4235 168.829 53.1568 169.613 53.1568 170.616C53.1568 171.619 53.4235 172.408 53.9568 172.984C54.5008 173.549 55.2208 173.832 56.1168 173.832C56.6928 173.832 57.2048 173.699 57.6528 173.432C58.1115 173.165 58.4688 172.792 58.7248 172.312C58.9808 171.821 59.1088 171.256 59.1088 170.616C59.1088 169.976 58.9808 169.411 58.7248 168.92C58.4688 168.429 58.1115 168.056 57.6528 167.8C57.2048 167.533 56.6928 167.4 56.1168 167.4ZM72.1121 170.12C72.1121 170.429 72.0907 170.696 72.0481 170.92H65.0241C65.0561 171.923 65.3387 172.675 65.8721 173.176C66.4161 173.677 67.0774 173.928 67.8561 173.928C68.5601 173.928 69.1467 173.752 69.6161 173.4C70.0961 173.037 70.3894 172.557 70.4961 171.96H72.0481C71.9414 172.568 71.7014 173.112 71.3281 173.592C70.9654 174.072 70.4907 174.445 69.9041 174.712C69.3174 174.979 68.6561 175.112 67.9201 175.112C67.0774 175.112 66.3307 174.931 65.6801 174.568C65.0294 174.205 64.5174 173.688 64.1441 173.016C63.7814 172.333 63.6001 171.533 63.6001 170.616C63.6001 169.699 63.7814 168.899 64.1441 168.216C64.5174 167.533 65.0294 167.011 65.6801 166.648C66.3307 166.285 67.0774 166.104 67.9201 166.104C68.7734 166.104 69.5147 166.285 70.1441 166.648C70.7841 167.011 71.2694 167.496 71.6001 168.104C71.9414 168.712 72.1121 169.384 72.1121 170.12ZM70.6401 170.216C70.6721 169.565 70.5654 169.021 70.3201 168.584C70.0747 168.147 69.7387 167.821 69.3121 167.608C68.8854 167.395 68.4214 167.288 67.9201 167.288C67.1201 167.288 66.4481 167.539 65.9041 168.04C65.3601 168.531 65.0667 169.256 65.0241 170.216H70.6401ZM85.9664 166.072C86.9904 166.072 87.8118 166.403 88.4304 167.064C89.0598 167.715 89.3744 168.659 89.3744 169.896V175H87.9184V170.024C87.9184 169.16 87.7051 168.499 87.2784 168.04C86.8624 167.581 86.2864 167.352 85.5504 167.352C84.7824 167.352 84.1638 167.608 83.6944 168.12C83.2358 168.621 83.0064 169.363 83.0064 170.344V175H81.5504V170.024C81.5504 169.16 81.3371 168.499 80.9104 168.04C80.4838 167.581 79.9078 167.352 79.1824 167.352C78.4038 167.352 77.7798 167.608 77.3104 168.12C76.8518 168.621 76.6224 169.363 76.6224 170.344V175H75.1664V166.216H76.6224V168.216C76.8358 167.523 77.2144 166.995 77.7584 166.632C78.3131 166.259 78.9478 166.072 79.6624 166.072C80.4091 166.072 81.0544 166.264 81.5984 166.648C82.1531 167.021 82.5478 167.576 82.7824 168.312C83.0278 167.597 83.4384 167.048 84.0144 166.664C84.5904 166.269 85.2411 166.072 85.9664 166.072ZM100.64 166.104C101.632 166.104 102.427 166.365 103.024 166.888C103.632 167.4 104 168.093 104.128 168.968H102.736C102.672 168.445 102.454 168.019 102.08 167.688C101.718 167.347 101.227 167.176 100.608 167.176C100.086 167.176 99.675 167.304 99.3763 167.56C99.0883 167.805 98.9443 168.141 98.9443 168.568C98.9443 168.888 99.0403 169.149 99.2323 169.352C99.435 169.544 99.6803 169.693 99.9683 169.8C100.267 169.896 100.672 170.003 101.184 170.12C101.835 170.269 102.358 170.424 102.752 170.584C103.158 170.733 103.499 170.979 103.776 171.32C104.064 171.661 104.208 172.12 104.208 172.696C104.208 173.411 103.936 173.992 103.392 174.44C102.859 174.888 102.144 175.112 101.248 175.112C100.203 175.112 99.3496 174.861 98.6883 174.36C98.027 173.859 97.6376 173.16 97.5203 172.264H98.9283C98.9816 172.797 99.211 173.229 99.6163 173.56C100.032 173.891 100.576 174.056 101.248 174.056C101.75 174.056 102.139 173.928 102.416 173.672C102.704 173.416 102.848 173.08 102.848 172.664C102.848 172.323 102.747 172.051 102.544 171.848C102.342 171.645 102.091 171.491 101.792 171.384C101.494 171.277 101.083 171.165 100.56 171.048C99.9096 170.899 99.387 170.749 98.9923 170.6C98.6083 170.451 98.2776 170.216 98.0003 169.896C97.7336 169.565 97.6003 169.123 97.6003 168.568C97.6003 167.832 97.8723 167.24 98.4163 166.792C98.9603 166.333 99.7016 166.104 100.64 166.104ZM115.384 170.12C115.384 170.429 115.363 170.696 115.32 170.92H108.296C108.328 171.923 108.611 172.675 109.144 173.176C109.688 173.677 110.349 173.928 111.128 173.928C111.832 173.928 112.419 173.752 112.888 173.4C113.368 173.037 113.661 172.557 113.768 171.96H115.32C115.213 172.568 114.973 173.112 114.6 173.592C114.237 174.072 113.763 174.445 113.176 174.712C112.589 174.979 111.928 175.112 111.192 175.112C110.349 175.112 109.603 174.931 108.952 174.568C108.301 174.205 107.789 173.688 107.416 173.016C107.053 172.333 106.872 171.533 106.872 170.616C106.872 169.699 107.053 168.899 107.416 168.216C107.789 167.533 108.301 167.011 108.952 166.648C109.603 166.285 110.349 166.104 111.192 166.104C112.045 166.104 112.787 166.285 113.416 166.648C114.056 167.011 114.541 167.496 114.872 168.104C115.213 168.712 115.384 169.384 115.384 170.12ZM113.912 170.216C113.944 169.565 113.837 169.021 113.592 168.584C113.347 168.147 113.011 167.821 112.584 167.608C112.157 167.395 111.693 167.288 111.192 167.288C110.392 167.288 109.72 167.539 109.176 168.04C108.632 168.531 108.339 169.256 108.296 170.216H113.912ZM127.733 173.72V175H126.645C125.749 175 125.077 174.787 124.629 174.36C124.192 173.933 123.973 173.219 123.973 172.216V167.48H122.661V166.216H123.973V164.024H125.445V166.216H127.717V167.48H125.445V172.248C125.445 172.813 125.547 173.203 125.749 173.416C125.963 173.619 126.325 173.72 126.837 173.72H127.733ZM138.74 170.12C138.74 170.429 138.719 170.696 138.676 170.92H131.652C131.684 171.923 131.967 172.675 132.5 173.176C133.044 173.677 133.706 173.928 134.484 173.928C135.188 173.928 135.775 173.752 136.244 173.4C136.724 173.037 137.018 172.557 137.124 171.96H138.676C138.57 172.568 138.33 173.112 137.956 173.592C137.594 174.072 137.119 174.445 136.532 174.712C135.946 174.979 135.284 175.112 134.548 175.112C133.706 175.112 132.959 174.931 132.308 174.568C131.658 174.205 131.146 173.688 130.772 173.016C130.41 172.333 130.228 171.533 130.228 170.616C130.228 169.699 130.41 168.899 130.772 168.216C131.146 167.533 131.658 167.011 132.308 166.648C132.959 166.285 133.706 166.104 134.548 166.104C135.402 166.104 136.143 166.285 136.772 166.648C137.412 167.011 137.898 167.496 138.228 168.104C138.57 168.712 138.74 169.384 138.74 170.12ZM137.268 170.216C137.3 169.565 137.194 169.021 136.948 168.584C136.703 168.147 136.367 167.821 135.94 167.608C135.514 167.395 135.05 167.288 134.548 167.288C133.748 167.288 133.076 167.539 132.532 168.04C131.988 168.531 131.695 169.256 131.652 170.216H137.268ZM146.851 175L144.563 171.64L142.499 175H140.883L143.763 170.472L140.867 166.216H142.531L144.755 169.48L146.787 166.216H148.403L145.539 170.632L148.515 175H146.851ZM150.767 163.64C150.767 163.373 150.857 163.16 151.039 163C151.22 162.829 151.46 162.744 151.759 162.744C152.057 162.744 152.297 162.829 152.479 163C152.66 163.16 152.751 163.373 152.751 163.64C152.751 163.907 152.66 164.125 152.479 164.296C152.297 164.456 152.057 164.536 151.759 164.536C151.46 164.536 151.22 164.456 151.039 164.296C150.857 164.125 150.767 163.907 150.767 163.64ZM152.479 166.216V175H151.023V166.216H152.479ZM160.162 173.72V175H159.074C158.178 175 157.506 174.787 157.058 174.36C156.62 173.933 156.402 173.219 156.402 172.216V167.48H155.09V166.216H156.402V164.024H157.874V166.216H160.146V167.48H157.874V172.248C157.874 172.813 157.975 173.203 158.178 173.416C158.391 173.619 158.754 173.72 159.266 173.72H160.162ZM163.936 173.928C164.086 174.397 164.16 174.835 164.16 175.24C164.16 175.795 164.022 176.237 163.744 176.568C163.467 176.909 163.051 177.08 162.496 177.08V176.456C162.763 176.456 162.955 176.381 163.072 176.232C163.2 176.093 163.264 175.869 163.264 175.56V175.416H162.448V173.928H163.936ZM176.762 166.072C177.786 166.072 178.613 166.403 179.242 167.064C179.872 167.715 180.186 168.659 180.186 169.896V175H178.73V170.024C178.73 169.149 178.506 168.477 178.058 168.008C177.61 167.539 177.002 167.304 176.234 167.304C175.434 167.304 174.794 167.565 174.314 168.088C173.834 168.6 173.594 169.352 173.594 170.344V175H172.138V166.216H173.594V168.296C173.818 167.581 174.213 167.032 174.778 166.648C175.354 166.264 176.016 166.072 176.762 166.072ZM191.65 170.12C191.65 170.429 191.628 170.696 191.586 170.92H184.562C184.594 171.923 184.876 172.675 185.41 173.176C185.954 173.677 186.615 173.928 187.394 173.928C188.098 173.928 188.684 173.752 189.154 173.4C189.634 173.037 189.927 172.557 190.034 171.96H191.586C191.479 172.568 191.239 173.112 190.866 173.592C190.503 174.072 190.028 174.445 189.442 174.712C188.855 174.979 188.194 175.112 187.458 175.112C186.615 175.112 185.868 174.931 185.218 174.568C184.567 174.205 184.055 173.688 183.682 173.016C183.319 172.333 183.138 171.533 183.138 170.616C183.138 169.699 183.319 168.899 183.682 168.216C184.055 167.533 184.567 167.011 185.218 166.648C185.868 166.285 186.615 166.104 187.458 166.104C188.311 166.104 189.052 166.285 189.682 166.648C190.322 167.011 190.807 167.496 191.138 168.104C191.479 168.712 191.65 169.384 191.65 170.12ZM190.178 170.216C190.21 169.565 190.103 169.021 189.858 168.584C189.612 168.147 189.276 167.821 188.85 167.608C188.423 167.395 187.959 167.288 187.458 167.288C186.658 167.288 185.986 167.539 185.442 168.04C184.898 168.531 184.604 169.256 184.562 170.216H190.178ZM203.407 166.104C204.26 166.104 204.98 166.317 205.567 166.744C206.164 167.171 206.58 167.741 206.815 168.456V166.216H208.271V175H206.815V172.76C206.58 173.475 206.164 174.045 205.567 174.472C204.98 174.899 204.26 175.112 203.407 175.112C202.628 175.112 201.935 174.931 201.327 174.568C200.719 174.205 200.239 173.688 199.887 173.016C199.546 172.333 199.375 171.533 199.375 170.616C199.375 169.699 199.546 168.899 199.887 168.216C200.239 167.533 200.719 167.011 201.327 166.648C201.935 166.285 202.628 166.104 203.407 166.104ZM203.823 167.4C202.927 167.4 202.207 167.688 201.663 168.264C201.13 168.829 200.863 169.613 200.863 170.616C200.863 171.619 201.13 172.408 201.663 172.984C202.207 173.549 202.927 173.832 203.823 173.832C204.399 173.832 204.911 173.699 205.359 173.432C205.818 173.165 206.175 172.792 206.431 172.312C206.687 171.821 206.815 171.256 206.815 170.616C206.815 169.976 206.687 169.411 206.431 168.92C206.175 168.429 205.818 168.056 205.359 167.8C204.911 167.533 204.399 167.4 203.823 167.4ZM215.338 166.104C216.192 166.104 216.912 166.317 217.498 166.744C218.096 167.171 218.512 167.741 218.746 168.456V163.16H220.202V175H218.746V172.76C218.512 173.475 218.096 174.045 217.498 174.472C216.912 174.899 216.192 175.112 215.338 175.112C214.56 175.112 213.866 174.931 213.258 174.568C212.65 174.205 212.17 173.688 211.818 173.016C211.477 172.333 211.306 171.533 211.306 170.616C211.306 169.699 211.477 168.899 211.818 168.216C212.17 167.533 212.65 167.011 213.258 166.648C213.866 166.285 214.56 166.104 215.338 166.104ZM215.754 167.4C214.858 167.4 214.138 167.688 213.594 168.264C213.061 168.829 212.794 169.613 212.794 170.616C212.794 171.619 213.061 172.408 213.594 172.984C214.138 173.549 214.858 173.832 215.754 173.832C216.33 173.832 216.842 173.699 217.29 173.432C217.749 173.165 218.106 172.792 218.362 172.312C218.618 171.821 218.746 171.256 218.746 170.616C218.746 169.976 218.618 169.411 218.362 168.92C218.106 168.429 217.749 168.056 217.29 167.8C216.842 167.533 216.33 167.4 215.754 167.4ZM224.742 173.288V175H222.982V173.288H224.742Z" fill="#323232"/>
<path d="M45.0547 112.388H37.6347L36.4027 116H31.3627L38.6147 96.344H44.1307L51.3827 116H46.2867L45.0547 112.388ZM43.8227 108.748L41.3587 101.468L38.8667 108.748H43.8227ZM69.2838 100.376V116H64.4678V113.172C64.0198 114.087 63.3478 114.815 62.4518 115.356C61.5745 115.897 60.5478 116.168 59.3718 116.168C57.5798 116.168 56.1518 115.571 55.0878 114.376C54.0425 113.181 53.5198 111.539 53.5198 109.448V100.376H58.2798V108.86C58.2798 109.924 58.5505 110.755 59.0918 111.352C59.6518 111.931 60.3985 112.22 61.3318 112.22C62.3025 112.22 63.0678 111.912 63.6278 111.296C64.1878 110.68 64.4678 109.803 64.4678 108.664V100.376H69.2838ZM81.9316 111.884V116H79.7756C77.9463 116 76.5183 115.552 75.4916 114.656C74.4836 113.741 73.9796 112.239 73.9796 110.148V104.408H71.8796V100.376H73.9796V96.54H78.7676V100.376H81.9036V104.408H78.7676V110.232C78.7676 110.848 78.889 111.277 79.1316 111.52C79.393 111.763 79.8223 111.884 80.4196 111.884H81.9316ZM95.0347 100.208C96.8267 100.208 98.2454 100.805 99.2907 102C100.355 103.195 100.887 104.837 100.887 106.928V116H96.0987V107.488C96.0987 106.443 95.8187 105.631 95.2587 105.052C94.7174 104.455 93.9894 104.156 93.0747 104.156C92.104 104.156 91.3294 104.464 90.7507 105.08C90.1907 105.696 89.9107 106.573 89.9107 107.712V116H85.1227V95.28H89.9107V103.232C90.3587 102.299 91.0214 101.561 91.8987 101.02C92.7947 100.479 93.84 100.208 95.0347 100.208ZM119.385 107.768C119.385 108.16 119.338 108.589 119.245 109.056H108.409C108.465 110.232 108.763 111.081 109.305 111.604C109.846 112.108 110.537 112.36 111.377 112.36C112.086 112.36 112.674 112.183 113.141 111.828C113.607 111.473 113.915 111.016 114.065 110.456H119.133C118.927 111.557 118.479 112.547 117.789 113.424C117.098 114.283 116.221 114.964 115.157 115.468C114.093 115.953 112.907 116.196 111.601 116.196C110.07 116.196 108.707 115.879 107.513 115.244C106.337 114.591 105.413 113.657 104.741 112.444C104.069 111.231 103.733 109.812 103.733 108.188C103.733 106.545 104.059 105.127 104.713 103.932C105.385 102.719 106.318 101.795 107.513 101.16C108.707 100.507 110.07 100.18 111.601 100.18C113.15 100.18 114.513 100.497 115.689 101.132C116.865 101.767 117.77 102.663 118.405 103.82C119.058 104.959 119.385 106.275 119.385 107.768ZM114.541 107.04C114.559 106.013 114.279 105.248 113.701 104.744C113.141 104.221 112.441 103.96 111.601 103.96C110.723 103.96 109.995 104.221 109.417 104.744C108.838 105.267 108.511 106.032 108.437 107.04H114.541ZM132.293 100.208C134.085 100.208 135.503 100.805 136.549 102C137.613 103.195 138.145 104.837 138.145 106.928V116H133.357V107.488C133.357 106.443 133.077 105.631 132.517 105.052C131.975 104.455 131.247 104.156 130.333 104.156C129.362 104.156 128.587 104.464 128.009 105.08C127.449 105.696 127.169 106.573 127.169 107.712V116H122.381V100.376H127.169V103.232C127.617 102.299 128.279 101.561 129.157 101.02C130.053 100.479 131.098 100.208 132.293 100.208ZM150.65 111.884V116H148.494C146.665 116 145.237 115.552 144.21 114.656C143.202 113.741 142.698 112.239 142.698 110.148V104.408H140.598V100.376H142.698V96.54H147.486V100.376H150.622V104.408H147.486V110.232C147.486 110.848 147.608 111.277 147.85 111.52C148.112 111.763 148.541 111.884 149.138 111.884H150.65ZM153.393 95.98C153.393 95.252 153.655 94.6547 154.177 94.188C154.7 93.7027 155.391 93.46 156.249 93.46C157.108 93.46 157.799 93.7027 158.321 94.188C158.844 94.6547 159.105 95.252 159.105 95.98C159.105 96.6893 158.844 97.2867 158.321 97.772C157.799 98.2387 157.108 98.472 156.249 98.472C155.391 98.472 154.7 98.2387 154.177 97.772C153.655 97.2867 153.393 96.6893 153.393 95.98ZM158.629 100.376V116H153.841V100.376H158.629ZM169.491 100.18C171.507 100.18 173.197 100.74 174.559 101.86C175.922 102.961 176.781 104.483 177.135 106.424H172.067C171.918 105.752 171.61 105.229 171.143 104.856C170.677 104.483 170.089 104.296 169.379 104.296C168.539 104.296 167.849 104.632 167.307 105.304C166.766 105.957 166.495 106.919 166.495 108.188C166.495 109.457 166.766 110.428 167.307 111.1C167.849 111.753 168.539 112.08 169.379 112.08C170.089 112.08 170.677 111.893 171.143 111.52C171.61 111.147 171.918 110.624 172.067 109.952H177.135C176.781 111.893 175.922 113.424 174.559 114.544C173.197 115.645 171.507 116.196 169.491 116.196C167.961 116.196 166.598 115.879 165.403 115.244C164.227 114.591 163.303 113.657 162.631 112.444C161.959 111.231 161.623 109.812 161.623 108.188C161.623 106.545 161.95 105.127 162.603 103.932C163.275 102.719 164.209 101.795 165.403 101.16C166.598 100.507 167.961 100.18 169.491 100.18ZM179.686 95.98C179.686 95.252 179.948 94.6547 180.47 94.188C180.993 93.7027 181.684 93.46 182.542 93.46C183.401 93.46 184.092 93.7027 184.614 94.188C185.137 94.6547 185.398 95.252 185.398 95.98C185.398 96.6893 185.137 97.2867 184.614 97.772C184.092 98.2387 183.401 98.472 182.542 98.472C181.684 98.472 180.993 98.2387 180.47 97.772C179.948 97.2867 179.686 96.6893 179.686 95.98ZM184.922 100.376V116H180.134V100.376H184.922ZM197.576 111.884V116H195.42C193.591 116 192.163 115.552 191.136 114.656C190.128 113.741 189.624 112.239 189.624 110.148V104.408H187.524V100.376H189.624V96.54H194.412V100.376H197.548V104.408H194.412V110.232C194.412 110.848 194.534 111.277 194.776 111.52C195.038 111.763 195.467 111.884 196.064 111.884H197.576ZM204.379 100.376L208.131 109.952L211.631 100.376H216.923L207.179 123.448H201.915L205.583 115.412L199.031 100.376H204.379Z" fill="#323232"/>
<circle cx="124" cy="35" r="35" fill="#58BEBF" fill-opacity="0.2"/>
<path fill-rule="evenodd" clip-rule="evenodd" d="M118.425 40.1036C118.425 37.0534 120.907 34.5718 123.957 34.5718C127.007 34.5718 129.489 37.0534 129.489 40.1036C129.489 43.1539 127.007 45.6355 123.957 45.6355C120.907 45.6355 118.425 43.1539 118.425 40.1036ZM120.122 40.7647L122.86 43.5018L127.791 38.5699L126.549 37.327L122.86 41.0159L121.365 39.5217L120.122 40.7647Z" fill="#58BEBF"/>
<path d="M129.577 23.4232H127.38C127.38 21.5326 125.848 20 123.957 20C122.066 20 120.534 21.5326 120.534 23.4232H118.337V27.8115H129.577V23.4232H129.577Z" fill="#58BEBF"/>
<path fill-rule="evenodd" clip-rule="evenodd" d="M131.335 29.5694V23.4233H134.874V50.0001H113.04V23.4233H116.579V29.5694H131.335ZM116.667 40.1039C116.667 44.1234 119.937 47.3936 123.957 47.3936C127.977 47.3936 131.247 44.1234 131.247 40.1039C131.247 36.0844 127.977 32.8142 123.957 32.8142C119.937 32.8142 116.667 36.0843 116.667 40.1039Z" fill="#58BEBF"/>
</svg>
